{
    "asset" : {
        "generator" : "Khronos glTF Blender I/O v1.8.19",
        "version" : "2.0"
    },
    "scene" : 0,
    "scenes" : [
        {
            "name" : "Scene",
            "nodes" : [
                0
            ]
        }
    ],
    "nodes" : [
        {
            "mesh" : 0,
            "name" : "Sphere.004",
            "scale" : [
                4.787250518798828,
                4.787250518798828,
                4.787250518798828
            ],
            "translation" : [
                0,
                70.34622192382812,
                0
            ]
        }
    ],
    "materials" : [
        {
            "doubleSided" : true,
            "name" : "Material.007",
            "pbrMetallicRoughness" : {
                "baseColorFactor" : [
                    0.800000011920929,
                    0.800000011920929,
                    0.800000011920929,
                    1
                ],
                "metallicFactor" : 0,
                "roughnessFactor" : 0.5
            }
        }
    ],
    "meshes" : [
        {
            "name" : "Sphere.004",
            "primitives" : [
                {
                    "attributes" : {
                        "POSITION" : 0,
                        "NORMAL" : 1,
                        "TEXCOORD_0" : 2
                    },
                    "indices" : 3,
                    "material" : 0
                }
            ]
        }
    ],
    "accessors" : [
        {
            "bufferView" : 0,
            "componentType" : 5126,
            "count" : 36000,
            "max" : [
                0.8610572218894958,
                0.9448701739311218,
                0.9993935823440552
            ],
            "min" : [
                -1.0016379356384277,
                -1.021251916885376,
                -0.9993996024131775
            ],
            "type" : "VEC3"
        },
        {
            "bufferView" : 1,
            "componentType" : 5126,
            "count" : 36000,
            "type" : "VEC3"
        },
        {
            "bufferView" : 2,
            "componentType" : 5126,
            "count" : 36000,
            "type" : "VEC2"
        },
        {
            "bufferView" : 3,
            "componentType" : 5123,
            "count" : 72000,
            "type" : "SCALAR"
        }
    ],
    "bufferViews" : [
        {
            "buffer" : 0,
            "byteLength" : 432000,
            "byteOffset" : 0
        },
        {
            "buffer" : 0,
            "byteLength" : 432000,
            "byteOffset" : 432000
        },
        {
            "buffer" : 0,
            "byteLength" : 288000,
            "byteOffset" : 864000
        },
        {
            "buffer" : 0,
            "byteLength" : 144000,
            "byteOffset" : 1152000
        }
    ],
    "buffers" : [
        {
            "byteLength" : 1296000,
            "uri" : "data:application/octet-stream;base64,"
        }
    ]
}
