{
    "asset" : {
        "generator" : "Khronos glTF Blender I/O v1.8.19",
        "version" : "2.0"
    },
    "scene" : 0,
    "scenes" : [
        {
            "name" : "Scene",
            "nodes" : [
                0
            ]
        }
    ],
    "nodes" : [
        {
            "mesh" : 0,
            "name" : "BezierCircle.007",
            "translation" : [
                17.2071533203125,
                5.99826717376709,
                0
            ]
        }
    ],
    "materials" : [
        {
            "doubleSided" : true,
            "name" : "Material.003",
            "pbrMetallicRoughness" : {
                "baseColorFactor" : [
                    1,
                    0.9527866244316101,
                    0.8940637111663818,
                    1
                ],
                "metallicFactor" : 0,
                "roughnessFactor" : 0.8372092843055725
            }
        }
    ],
    "meshes" : [
        {
            "name" : "BezierCircle.007",
            "primitives" : [
                {
                    "attributes" : {
                        "POSITION" : 0,
                        "NORMAL" : 1,
                        "TEXCOORD_0" : 2
                    },
                    "indices" : 3,
                    "material" : 0
                }
            ]
        }
    ],
    "accessors" : [
        {
            "bufferView" : 0,
            "componentType" : 5126,
            "count" : 31104,
            "max" : [
                2.0121946334838867,
                2.012223243713379,
                0.005051556974649429
            ],
            "min" : [
                -2.0122013092041016,
                -2.012230634689331,
                -0.00507827615365386
            ],
            "type" : "VEC3"
        },
        {
            "bufferView" : 1,
            "componentType" : 5126,
            "count" : 31104,
            "type" : "VEC3"
        },
        {
            "bufferView" : 2,
            "componentType" : 5126,
            "count" : 31104,
            "type" : "VEC2"
        },
        {
            "bufferView" : 3,
            "componentType" : 5123,
            "count" : 60264,
            "type" : "SCALAR"
        }
    ],
    "bufferViews" : [
        {
            "buffer" : 0,
            "byteLength" : 373248,
            "byteOffset" : 0
        },
        {
            "buffer" : 0,
            "byteLength" : 373248,
            "byteOffset" : 373248
        },
        {
            "buffer" : 0,
            "byteLength" : 248832,
            "byteOffset" : 746496
        },
        {
            "buffer" : 0,
            "byteLength" : 120528,
            "byteOffset" : 995328
        }
    ],
    "buffers" : [
        {
            "byteLength" : 1115856,
            "uri" : "data:application/octet-stream;base64,"
        }
    ]
}
