{
    "asset" : {
        "generator" : "Khronos glTF Blender I/O v1.8.19",
        "version" : "2.0"
    },
    "scene" : 0,
    "scenes" : [
        {
            "name" : "Scene",
            "nodes" : [
                0,
                1
            ]
        }
    ],
    "nodes" : [
        {
            "mesh" : 0,
            "name" : "Cylinder"
        },
        {
            "mesh" : 1,
            "name" : "BezierCircle.007"
        }
    ],
    "materials" : [
        {
            "doubleSided" : true,
            "name" : "Material.003",
            "pbrMetallicRoughness" : {
                "baseColorFactor" : [
                    0.10247112065553665,
                    0.09804914146661758,
                    0.09253321588039398,
                    1
                ],
                "metallicFactor" : 0,
                "roughnessFactor" : 0.8372092843055725
            }
        },
        {
            "doubleSided" : true,
            "name" : "Material.002",
            "pbrMetallicRoughness" : {
                "baseColorFactor" : [
                    1,
                    0.01658795215189457,
                    0.05671728402376175,
                    1
                ],
                "metallicFactor" : 0,
                "roughnessFactor" : 0.8372092843055725
            }
        }
    ],
    "meshes" : [
        {
            "name" : "Cylinder.002",
            "primitives" : [
                {
                    "attributes" : {
                        "POSITION" : 0,
                        "NORMAL" : 1,
                        "TEXCOORD_0" : 2
                    },
                    "indices" : 3,
                    "material" : 0
                }
            ]
        },
        {
            "name" : "BezierCircle.007",
            "primitives" : [
                {
                    "attributes" : {
                        "POSITION" : 4,
                        "NORMAL" : 5,
                        "TEXCOORD_0" : 6
                    },
                    "indices" : 7,
                    "material" : 1
                }
            ]
        }
    ],
    "accessors" : [
        {
            "bufferView" : 0,
            "componentType" : 5126,
            "count" : 34445,
            "max" : [
                -3.200690507888794,
                7.561270236968994,
                0.008185386657714844
            ],
            "min" : [
                -7.231261253356934,
                3.530630111694336,
                -0.008147954940795898
            ],
            "type" : "VEC3"
        },
        {
            "bufferView" : 1,
            "componentType" : 5126,
            "count" : 34445,
            "type" : "VEC3"
        },
        {
            "bufferView" : 2,
            "componentType" : 5126,
            "count" : 34445,
            "type" : "VEC2"
        },
        {
            "bufferView" : 3,
            "componentType" : 5123,
            "count" : 78696,
            "type" : "SCALAR"
        },
        {
            "bufferView" : 4,
            "componentType" : 5126,
            "count" : 784,
            "max" : [
                -3.3612217903137207,
                7.368661403656006,
                0.017999649047851562
            ],
            "min" : [
                -7.177238464355469,
                3.8491945266723633,
                0.01799917221069336
            ],
            "type" : "VEC3"
        },
        {
            "bufferView" : 5,
            "componentType" : 5126,
            "count" : 784,
            "type" : "VEC3"
        },
        {
            "bufferView" : 6,
            "componentType" : 5126,
            "count" : 784,
            "type" : "VEC2"
        },
        {
            "bufferView" : 7,
            "componentType" : 5123,
            "count" : 2304,
            "type" : "SCALAR"
        }
    ],
    "bufferViews" : [
        {
            "buffer" : 0,
            "byteLength" : 413340,
            "byteOffset" : 0
        },
        {
            "buffer" : 0,
            "byteLength" : 413340,
            "byteOffset" : 413340
        },
        {
            "buffer" : 0,
            "byteLength" : 275560,
            "byteOffset" : 826680
        },
        {
            "buffer" : 0,
            "byteLength" : 157392,
            "byteOffset" : 1102240
        },
        {
            "buffer" : 0,
            "byteLength" : 9408,
            "byteOffset" : 1259632
        },
        {
            "buffer" : 0,
            "byteLength" : 9408,
            "byteOffset" : 1269040
        },
        {
            "buffer" : 0,
            "byteLength" : 6272,
            "byteOffset" : 1278448
        },
        {
            "buffer" : 0,
            "byteLength" : 4608,
            "byteOffset" : 1284720
        }
    ],
    "buffers" : [
        {
            "byteLength" : 1289328,
            "uri" : "data:application/octet-stream;base64,"
        }
    ]
}
