{
    "asset" : {
        "generator" : "Khronos glTF Blender I/O v1.8.19",
        "version" : "2.0"
    },
    "scene" : 0,
    "scenes" : [
        {
            "name" : "Scene",
            "nodes" : [
                0
            ]
        }
    ],
    "nodes" : [
        {
            "mesh" : 0,
            "name" : "Cylinder",
            "rotation" : [
                0.030439788475632668,
                0.9995366930961609,
                0,
                -8.752653002375155e-07
            ],
            "scale" : [
                1.0031731128692627,
                1.0031731128692627,
                1.0031731128692627
            ],
            "translation" : [
                -0.006593787577003241,
                0.14734642207622528,
                -3.995986223220825
            ]
        }
    ],
    "materials" : [
        {
            "doubleSided" : true,
            "name" : "Material.003",
            "pbrMetallicRoughness" : {
                "baseColorFactor" : [
                    0.10247112065553665,
                    0.09804914146661758,
                    0.09253321588039398,
                    1
                ],
                "metallicFactor" : 0,
                "roughnessFactor" : 0.8372092843055725
            }
        }
    ],
    "meshes" : [
        {
            "name" : "Cylinder.002",
            "primitives" : [
                {
                    "attributes" : {
                        "POSITION" : 0,
                        "NORMAL" : 1,
                        "TEXCOORD_0" : 2
                    },
                    "indices" : 3,
                    "material" : 0
                }
            ]
        }
    ],
    "accessors" : [
        {
            "bufferView" : 0,
            "componentType" : 5126,
            "count" : 34445,
            "max" : [
                2.0091207027435303,
                2.009413003921509,
                -3.9752237796783447
            ],
            "min" : [
                -2.009129047393799,
                -2.008542060852051,
                -3.991506338119507
            ],
            "type" : "VEC3"
        },
        {
            "bufferView" : 1,
            "componentType" : 5126,
            "count" : 34445,
            "type" : "VEC3"
        },
        {
            "bufferView" : 2,
            "componentType" : 5126,
            "count" : 34445,
            "type" : "VEC2"
        },
        {
            "bufferView" : 3,
            "componentType" : 5123,
            "count" : 78696,
            "type" : "SCALAR"
        }
    ],
    "bufferViews" : [
        {
            "buffer" : 0,
            "byteLength" : 413340,
            "byteOffset" : 0
        },
        {
            "buffer" : 0,
            "byteLength" : 413340,
            "byteOffset" : 413340
        },
        {
            "buffer" : 0,
            "byteLength" : 275560,
            "byteOffset" : 826680
        },
        {
            "buffer" : 0,
            "byteLength" : 157392,
            "byteOffset" : 1102240
        }
    ],
    "buffers" : [
        {
            "byteLength" : 1259632,
            "uri" : "data:application/octet-stream;base64,"
        }
    ]
}
