<?xml version="1.0" encoding="utf-8"?>
<!-- Generator: Adobe Illustrator 24.3.0, SVG Export Plug-In . SVG Version: 6.00 Build 0)  -->
<svg version="1.1" id="Layer_1" xmlns="http://www.w3.org/2000/svg" xmlns:xlink="http://www.w3.org/1999/xlink" x="0px" y="0px"
	 viewBox="0 0 1198.9 1080" style="enable-background:new 0 0 1198.9 1080;" xml:space="preserve">
<style type="text/css">
	.st0{fill:#020202;}
	.st1{fill:url(#SVGID_1_);}
	.st2{fill:url(#SVGID_2_);}
</style>
<path class="st0" d="M1006.3,489.5c-0.3,1.6-0.5,3.1-0.9,4.7c-2.8,10.7-10.1,17.1-20,21c-8.8,3.5-18.1,4.2-27.5,3.7
	c-10.7-0.6-21.1-2.9-30.7-7.8c-1.9-1-3.7-2.1-5.4-3.3c-0.4-0.3-0.7-1.2-0.5-1.6c2.4-5.6,5-11.2,7.5-16.8c0.5,0.3,0.9,0.4,1.2,0.6
	c12.1,7.8,25.2,11.2,39.5,9.4c2.7-0.3,5.5-1.2,8-2.5c6.7-3.6,7-11.8,0.3-15.4c-4.4-2.3-9.4-3.6-14.2-5c-7-2.1-14-3.7-21-5.9
	c-5.2-1.7-9.9-4.5-13.6-8.6c-8.5-9.4-8.4-25.7,0.3-35.9c5.5-6.5,12.6-10.1,20.7-11.8c17.1-3.6,33.6-2,49.3,5.9
	c0.8,0.4,1.5,0.9,2.4,1.4c-2.4,6-4.9,12-7.3,17.9c-2.9-1.3-5.6-2.7-8.4-3.9c-9.2-3.7-18.8-5.3-28.6-3.2c-2.4,0.5-4.7,1.6-6.8,2.8
	c-4.8,3-6.6,11.4,0.6,15.5c4.7,2.6,9.9,3.6,15,5c6.9,1.8,13.9,3.5,20.6,5.8c3.8,1.3,7.5,3.6,10.8,6.1c5,3.8,7.6,9.1,8.4,15.3
	c0.1,0.5,0.2,1,0.4,1.5C1006.3,486.2,1006.3,487.8,1006.3,489.5z"/>
<path class="st0" d="M646.2,460c4.1-6.8,8.1-13.4,12-19.9c4.8-8,9.7-16,14.5-24.1c0.7-1.2,1.4-1.5,2.7-1.5c7.1,0.1,14.2,0,21.5,0
	c-0.4,0.8-0.7,1.4-1.1,2c-12.6,20.9-25.2,41.8-37.8,62.7c-0.6,1-0.9,2.2-0.9,3.4c-0.1,10.7,0,21.4,0,32.1c0,0.7,0,1.4,0,2.2
	c-7.9,0-15.7,0-23.7,0c0-0.7,0-1.4,0-2c0-11,0-21.9,0-32.9c0-0.9-0.3-1.9-0.7-2.7c-11.2-18.6-22.4-37.1-33.6-55.7
	c-0.3-0.4-0.5-0.8-1-1.4c-11.8,12.7-23.6,25.3-35.4,38c15,18.9,29.9,37.7,45,56.8c-0.9,0-1.4,0.1-1.9,0.1c-8,0-16.1,0-24.1,0
	c-1.2,0-2-0.4-2.7-1.3c-10.1-12.4-20.2-24.8-30.4-37.2c-0.4-0.5-0.9-1.1-0.8-0.9c-3.6,3.2-7,6.4-10.7,9.5c-3,2.5-4.1,5.4-3.8,9.3
	c0.3,6.1,0.1,12.2,0.1,18.4c0,0.7,0,1.4,0,2.1c-8,0-15.7,0-23.6,0c0-34.1,0-68.1,0-102.3c7.8,0,15.6,0,23.5,0c0,15.7,0,31.4,0,47.6
	c0.8-0.8,1.3-1.2,1.7-1.7c14.1-14.8,28.2-29.7,42.3-44.6c1.1-1.1,2.1-1.6,3.6-1.6c12,0.1,24,0.1,36,0c1.5,0,2.3,0.5,3,1.7
	c8.3,14,16.7,27.9,25.1,41.8C645.3,458.5,645.7,459.1,646.2,460z"/>
<path class="st0" d="M858.8,519.1c-18-0.4-32.9-5.5-44.4-18.3c-10-11.1-13.9-24.5-12.8-39.2c2-27.5,23.1-46.2,49.4-48.6
	c12-1.1,23.6,0.4,34.4,6c17.1,8.9,26.7,23.1,28.3,42.3c2.3,29.2-17.1,53.1-46.1,57C864.2,518.7,860.9,518.9,858.8,519.1z M890,465.7
	c-0.1-1.5-0.2-2.9-0.4-4.4c-3.3-28.2-33.9-35.1-51.2-22.4c-11.5,8.5-14.6,20.5-12.2,34c3.8,21.1,23.9,29.5,41.4,24.4
	C881.3,493.2,889.9,481,890,465.7z"/>
<path class="st0" d="M703.1,414.5c5.1,0,10,0,14.9,0c10.1,0,20.2,0,30.2,0c8.4,0.1,16.6,1.4,24.3,5.1c14.6,7.1,20.5,20.3,19.5,34.9
	c-0.9,13.6-7.7,23.3-20,29.2c-0.3,0.1-0.5,0.3-0.9,0.5c7.6,10.9,15.1,21.7,22.9,32.8c-1,0-1.6,0-2.2,0c-7.1,0-14.3,0-21.4,0
	c-1.4,0-2.2-0.4-3-1.5c-5.9-8.6-11.8-17.1-17.8-25.6c-0.4-0.6-1.2-1.4-1.8-1.4c-6.9-0.1-13.9-0.1-21-0.1c0,9.5,0,18.8,0,28.3
	c-8,0-15.8,0-23.7,0C703.1,482.9,703.1,448.8,703.1,414.5z M726.8,469.6c7,0,13.8,0,20.6,0c1.4,0,2.8-0.2,4.2-0.4
	c9.3-1.1,15-6.2,16.3-14.7c1.4-9.1-3-16.5-11.4-19.2c-2.2-0.7-4.6-1.2-6.9-1.3c-7.3-0.2-14.7-0.1-22-0.2c-0.2,0-0.5,0.1-0.8,0.1
	C726.8,445.8,726.8,457.6,726.8,469.6z"/>
<path class="st0" d="M638.3,631.8c-1.8,0-3.2,0-4.8,0c0-22.3,0-44.5,0-66.7c2.5-0.6,4.2-0.1,5.9,2.1c13.8,17.8,27.8,35.6,41.8,53.3
	c0.5,0.7,1,1.3,1.9,2.4c0-19.6,0-38.7,0-57.8c1.8,0,3.3,0,4.9,0c0,22.2,0,44.4,0,66.7c-2.1,0.3-3.9,0.4-5.5-1.7
	c-14.1-18.2-28.4-36.2-42.7-54.3c-0.4-0.5-0.8-0.9-1.5-1.7C638.3,593.4,638.3,612.5,638.3,631.8z"/>
<path class="st0" d="M838.9,610c0,7.4,0,14.5,0,21.7c-1.6,0-3.2,0-4.8,0c0-22.2,0-44.4,0-66.7c0.5,0,1-0.1,1.5-0.1
	c7.9,0,15.7-0.2,23.6,0.1c3.7,0.1,7.5,0.7,11.1,1.8c10.8,3.3,16.4,12.7,14.9,23.9c-1.2,8.8-6,14.5-14.3,17.5
	c-0.4,0.1-0.7,0.3-1.3,0.5c5.5,7.7,11,15.3,16.7,23.3c-1.9,0-3.4,0.1-4.9-0.1c-0.6-0.1-1.2-0.7-1.5-1.2c-4.8-6.5-9.5-13.1-14.3-19.7
	c-0.4-0.6-1.2-1.2-1.9-1.2c-7.8,0-15.6,0.2-23.3,0.3C840,610.1,839.6,610,838.9,610z M839,605.4c8.3,0,16.3,0.4,24.3-0.1
	c9.7-0.7,15.5-6.3,16.8-15.1c1.3-8.8-2.8-16.2-10.6-19.1c-2.4-0.9-5.1-1.5-7.6-1.6c-7.3-0.3-14.7-0.2-22-0.2c-0.3,0-0.6,0.1-0.9,0.2
	C839,581.6,839,593.6,839,605.4z"/>
<path class="st0" d="M617.5,627.4c0,1.6,0,2.9,0,4.3c-15.3,0-30.7,0-46.1,0c0-22.2,0-44.4,0-66.7c14.8,0,29.7,0,44.6,0
	c0,1.3,0,2.6,0,4.2c-13.2,0-26.4,0-39.7,0c0,8.9,0,17.6,0,26.6c11.8,0,23.5,0,35.4,0c0,1.5,0,2.8,0,4.3c-11.8,0-23.6,0-35.4,0
	c0,9.2,0,18.1,0,27.3C590,627.4,603.7,627.4,617.5,627.4z"/>
<path class="st0" d="M901.2,564.9c14.9,0,29.6,0,44.5,0c0,1.4,0,2.8,0,4.3c-13.2,0-26.4,0-39.6,0c0,8.9,0,17.6,0,26.5
	c11.8,0,23.6,0,35.5,0c0,1.5,0,2.7,0,4.2c-11.7,0-23.5,0-35.4,0c0,9.2,0,18.2,0,27.5c13.7,0,27.4,0,41.1,0c0,1.6,0,2.9,0,4.3
	c-15.3,0-30.6,0-46.1,0C901.2,609.5,901.2,587.3,901.2,564.9z"/>
<path class="st0" d="M759.7,564.9c1.7,0,3.2,0,4.9,0c0,0.8,0,1.5,0,2.3c0,12.4-0.1,24.7,0.1,37.1c0,2.8,0.4,5.7,1.1,8.5
	c2.2,9,8.4,14.2,17.7,14.7c3.1,0.2,6.3,0.1,9.3-0.5c8.6-1.7,13.9-7.9,15.1-17.2c0.3-2.6,0.5-5.2,0.5-7.8c0-11.6,0-23.2,0-34.8
	c0-0.7,0-1.4,0-2.2c1.6,0,3.1,0,4.8,0c0,0.6,0.1,1.2,0.1,1.8c0,12.3,0.1,24.6-0.1,36.9c-0.1,4-0.7,8.2-1.8,12
	c-2.8,9.4-9.6,14.5-19.2,16.1c-4.6,0.8-9.3,0.6-13.9-0.5c-10.2-2.5-15.8-9.3-17.8-19.3c-0.5-2.5-0.8-5.2-0.8-7.8
	c-0.1-12.6,0-25.2,0-37.9C759.6,566,759.7,565.6,759.7,564.9z"/>
<path class="st0" d="M958.5,619.7c9.2,7.7,19.6,9.8,31.1,7.1c5-1.2,9-3.9,10.3-9.4c1.1-4.8-0.4-9.4-4.8-11.7c-3.8-2-8-3.2-12.1-4.5
	c-4.8-1.6-9.7-2.6-14.4-4.4c-6.6-2.5-10.5-7.4-10.4-14.7c0.1-7.3,3.8-12.6,10.5-15.2c11.4-4.4,22.4-3.1,32.9,3
	c0.2,0.1,0.4,0.3,0.7,0.6c-0.3,0.6-0.5,1.3-0.8,1.9c-0.3,0.6-0.6,1.3-0.9,1.9c-6.1-3.9-12.7-5.8-19.9-5.6c-3.9,0.1-7.6,0.7-11.1,2.6
	c-5.1,2.8-7.5,8.1-6.2,13.6c0.8,3.4,3.1,5.8,6.2,7.1c4,1.6,8.2,2.8,12.3,4.1c4.3,1.4,8.8,2.3,13,4c6.3,2.4,10.2,6.9,10.3,14
	c0.1,7.1-3.3,12.5-9.8,15.1c-12.8,5.3-25.2,3.8-36.7-4c-2.6-1.8-2.5-1.9-0.8-4.5C958,620.4,958.3,620.1,958.5,619.7z"/>
<path class="st0" d="M562.4,564.9c-0.8,1.9-1.5,3.5-2.3,5.1c-8.9,20.1-17.9,40.1-26.8,60.2c-0.9,2-2.2,1.6-3.7,1.7
	c-1.4,0.1-2.2-0.2-2.9-1.7c-9.3-21.1-18.8-42.2-28.2-63.3c-0.3-0.6-0.5-1.2-0.8-1.9c1.4,0,2.5,0.1,3.6,0c1.3-0.1,1.9,0.3,2.4,1.5
	c5.6,12.6,11.2,25.1,16.8,37.7c3.1,7,6.2,13.9,9.5,21.2c0.5-0.9,0.8-1.5,1.1-2.2c8.3-18.6,16.7-37.2,24.9-55.8
	c0.9-2,1.9-2.8,3.9-2.5C560.7,565,561.4,564.9,562.4,564.9z"/>
<path class="st0" d="M727.5,631.8c-1.8,0-3.3,0-4.9,0c0-20.8,0-41.5,0-62.5c-8.1,0-16.1,0-24.1,0c0-1.5,0-2.9,0-4.3
	c17.7,0,35.3,0,53,0c0,1.4,0,2.7,0,4.2c-7.9,0-15.8,0-24,0C727.5,590.1,727.5,610.9,727.5,631.8z"/>
<g>
	<linearGradient id="SVGID_1_" gradientUnits="userSpaceOnUse" x1="105.8468" y1="517.1126" x2="424.5135" y2="517.1126">
		<stop  offset="0" style="stop-color:#670101"/>
		<stop  offset="1" style="stop-color:#990202"/>
	</linearGradient>
	<path class="st1" d="M105.8,676.3c0-106.1,0-212.1,0-318.3c106.2,0,212.3,0,318.7,0c0,106.1,0,212.2,0,318.3
		C318.3,676.3,212.1,676.3,105.8,676.3z M392.3,644.3c0-84.9,0-169.6,0-254.4c-84.9,0-169.6,0-254.5,0c0,84.8,0,169.6,0,254.4
		C222.7,644.3,307.4,644.3,392.3,644.3z"/>
	<linearGradient id="SVGID_2_" gradientUnits="userSpaceOnUse" x1="243.1771" y1="517.09" x2="355.5413" y2="517.09">
		<stop  offset="0" style="stop-color:#670101"/>
		<stop  offset="1" style="stop-color:#990202"/>
	</linearGradient>
	<path class="st2" d="M355.5,584.7c-7.7,7.7-15.2,15.2-22.4,22.4c-30-30-60.1-60-89.9-89.8c29.7-29.9,59.8-60.1,89.7-90.1
		c7.6,7.5,15.1,15.1,22.7,22.6c-22.4,22.4-45,44.9-67.6,67.5C310.6,539.8,333,562.3,355.5,584.7z"/>
</g>
</svg>
